<?xml version="1.0" encoding="UTF-8" standalone="no"?>
<svg
   xmlns:dc="http://purl.org/dc/elements/1.1/"
   xmlns:cc="http://creativecommons.org/ns#"
   xmlns:rdf="http://www.w3.org/1999/02/22-rdf-syntax-ns#"
   xmlns:svg="http://www.w3.org/2000/svg"
   xmlns="http://www.w3.org/2000/svg"
   id="svg918"
   version="1.1"
   viewBox="0 0 198.4375 52.916666"
   height="200"
   width="750">
  <defs
     id="defs912" />
  <metadata
     id="metadata915">
    <rdf:RDF>
      <cc:Work
         rdf:about="">
        <dc:format>image/svg+xml</dc:format>
        <dc:type
           rdf:resource="http://purl.org/dc/dcmitype/StillImage" />
        <dc:title></dc:title>
      </cc:Work>
    </rdf:RDF>
  </metadata>
  <g
     transform="translate(0,-244.08333)"
     id="layer1">
    <g
       id="g886"
       transform="translate(-20.302101,26.18005)">
      <rect
         style="fill:none;fill-opacity:1;stroke:none;stroke-width:0.55573601;stroke-linejoin:miter;stroke-miterlimit:4;stroke-dasharray:none;stroke-opacity:1;paint-order:stroke markers fill"
         id="rect870-4-1"
         width="198.4375"
         height="52.916672"
         x="20.302101"
         y="217.90327" />
      <g
         id="g874">
        <path
           style="font-style:normal;font-variant:normal;font-weight:normal;font-stretch:normal;font-size:70.53720093px;line-height:1.25;font-family:'Croissant One';-inkscape-font-specification:'Croissant One';letter-spacing:0px;word-spacing:0px;fill:#ffffff;fill-opacity:1;stroke:none;stroke-width:0.29824799;stroke-miterlimit:4;stroke-dasharray:none;stroke-opacity:1"
           d="m 44.502591,225.84077 c -1.071973,0 -2.168928,0.22421 -3.290762,0.67311 -1.096903,0.44897 -2.00674,1.04681 -2.7297,1.79469 l 1.009529,1.1594 c 0.722959,-0.87257 1.770052,-1.4835 3.141182,-1.83251 v 10.20869 c -1.196622,-1.77 -2.904244,-2.65488 -5.12298,-2.65488 -2.89184,0 -5.147937,0.93475 -6.768364,2.80447 -1.595498,1.86974 -2.393283,4.25049 -2.393283,7.14234 0,2.86689 0.747924,5.23533 2.243703,7.10506 1.495777,1.84476 3.677084,2.7672 6.543992,2.7672 2.517894,0 4.424962,-1.10925 5.721302,-3.32799 0.548449,2.21874 2.006767,3.32799 4.375082,3.32799 1.994371,0 3.988835,-0.90984 5.983204,-2.7297 l -0.859948,-0.89748 c -0.872538,0.72297 -1.62046,1.08435 -2.243701,1.08435 -0.598312,0 -1.059669,-0.18666 -1.383754,-0.56079 -0.324086,-0.3987 -0.485999,-0.93502 -0.485999,-1.60813 v -22.17484 c 0,-0.6482 -0.349029,-1.18409 -1.047061,-1.60787 -0.698029,-0.44895 -1.595537,-0.67311 -2.692442,-0.67311 z m 53.024231,0 c -1.071971,0 -2.168926,0.22421 -3.290757,0.67311 -1.096905,0.44897 -2.006743,1.04681 -2.729701,1.79469 l 1.009525,1.1594 c 0.722959,-0.87257 1.770052,-1.4835 3.141182,-1.83251 v 10.20869 c -1.19662,-1.77 -2.904243,-2.65488 -5.12298,-2.65488 -2.891836,0 -5.147936,0.93475 -6.768363,2.80447 -1.595498,1.86974 -2.393283,4.25049 -2.393283,7.14234 0,2.86689 0.747925,5.23533 2.243702,7.10506 1.495779,1.84476 3.677085,2.7672 6.543993,2.7672 2.517895,0 4.424966,-1.10925 5.721301,-3.32799 0.548471,2.21874 2.00677,3.32799 4.375079,3.32799 1.99438,0 3.98884,-0.90984 5.98321,-2.7297 l -0.86023,-0.89748 c -0.87253,0.72297 -1.62018,1.08435 -2.24342,1.08435 -0.59831,0 -1.05967,-0.18666 -1.38376,-0.56079 -0.3241,-0.3987 -0.48601,-0.93502 -0.48601,-1.60813 v -22.17484 c 0,-0.6482 -0.34901,-1.18409 -1.04706,-1.60787 -0.698027,-0.44895 -1.59554,-0.67311 -2.692444,-0.67311 z m 43.111128,7.74063 c -0.79775,0 -1.48321,0.28661 -2.05659,0.85998 -0.54847,0.54836 -0.82269,1.18403 -0.82269,1.90701 0,0.72291 0.29892,1.54568 0.89721,2.46806 -1.3462,2.74225 -2.96643,5.64652 -4.86108,8.71286 l 0.93473,0.82272 5.64652,-7.06751 c 1.69522,2.49297 2.54286,4.88632 2.54286,7.17983 0,1.44596 -0.41124,2.51793 -1.2339,3.216 -0.79775,0.67305 -1.83224,1.00953 -3.10365,1.00953 -1.27141,0 -2.45576,-0.43626 -3.55266,-1.30872 l -0.85995,0.89748 c 0.62324,0.77283 1.53307,1.42077 2.7297,1.94427 1.22155,0.52352 2.43055,0.78543 3.62718,0.78543 2.61762,0 4.63701,-0.64819 6.058,-1.94455 1.42098,-1.32126 2.13138,-2.91681 2.13138,-4.78653 0,-1.8947 -0.54821,-3.55242 -1.64511,-4.97341 -1.09692,-1.44596 -2.66755,-2.91686 -4.71178,-4.41263 0.77281,-0.87252 1.15911,-1.69522 1.15911,-2.46807 0,-0.77283 -0.28655,-1.43335 -0.85995,-1.98177 -0.54848,-0.57343 -1.22158,-0.85998 -2.01933,-0.85998 z m -81.628553,1.60787 c -1.071974,0 -2.168928,0.22419 -3.290762,0.67311 -1.096904,0.44895 -2.006741,1.04707 -2.7297,1.79494 l 1.009528,1.15913 c 0.722961,-0.87257 1.770053,-1.48322 3.141182,-1.83224 v 12.52722 c 0,1.69522 0.486015,3.04144 1.45827,4.03866 0.997184,0.97224 2.293587,1.45825 3.889083,1.45825 1.620427,0 2.941759,-0.19935 3.963872,-0.59833 1.047048,-0.42356 2.056606,-1.14675 3.028861,-2.16887 0.673101,1.84476 2.044291,2.7672 4.113456,2.7672 2.069155,0 4.100881,-0.90984 6.095247,-2.7297 l -0.673108,-0.89748 c -0.872541,0.72297 -1.645393,1.08435 -2.318491,1.08435 -0.673104,0 -1.171716,-0.18666 -1.495801,-0.56079 -0.324102,-0.3987 -0.486015,-0.93502 -0.486015,-1.60813 v -14.54626 h -5.609238 v 13.20004 c 0,1.12185 -0.398889,2.03191 -1.196641,2.72998 -0.797747,0.69801 -1.620465,1.04703 -2.468071,1.04703 -0.847608,0 -1.508137,-0.21205 -1.981801,-0.63583 -0.473661,-0.42357 -0.710367,-1.02218 -0.710367,-1.79496 v -12.82636 c 0,-0.6482 -0.34903,-1.18409 -1.047063,-1.60785 -0.698028,-0.44897 -1.595537,-0.67311 -2.692441,-0.67311 z m 58.109683,0 c -2.89184,0 -5.14794,0.93475 -6.76837,2.80447 -1.59549,1.86974 -2.39327,4.25049 -2.39327,7.14234 0,2.86689 0.74792,5.23533 2.24369,7.10506 1.49578,1.84476 3.67709,2.7672 6.544,2.7672 2.51789,0 4.42496,-1.10925 5.7213,-3.32799 0.54847,2.21874 2.00704,3.32799 4.37536,3.32799 1.99437,0 3.98855,-0.90984 5.98293,-2.7297 l -0.67311,-0.89748 c -0.87254,0.72297 -1.64512,1.08435 -2.31822,1.08435 -0.6731,0 -1.17171,-0.18666 -1.4958,-0.56079 -0.32411,-0.3987 -0.48629,-0.93502 -0.48629,-1.60813 v -14.54626 h -5.60926 v 2.09382 c -1.19662,-1.77 -2.90424,-2.65488 -5.12298,-2.65488 z m 48.96996,0 c -1.27142,0 -2.38098,0.1872 -3.3283,0.56106 -0.9224,0.349 -1.83224,0.97203 -2.7297,1.86945 -0.87254,-0.64815 -1.72017,-1.12185 -2.54288,-1.421 -0.79774,-0.29931 -1.81989,-0.44841 -3.06637,-0.44841 -1.22156,0 -2.36837,0.22421 -3.44036,0.67284 l 0.52352,1.38377 c 0.87253,-0.37386 1.86976,-0.56106 2.9916,-0.56106 v 17.20142 h 5.60926 v -13.34963 c 0,-1.07193 0.37397,-1.94451 1.12185,-2.61762 0.77282,-0.67311 1.54566,-1.0098 2.31849,-1.0098 0.79774,0 1.42102,0.21205 1.86975,0.63583 0.44874,0.42356 0.67311,1.02212 0.67311,1.79496 v 14.54626 h 5.60899 v -13.34963 c 0,-1.07193 0.37397,-1.94451 1.12184,-2.61762 0.77281,-0.67311 1.54567,-1.0098 2.31849,-1.0098 0.79774,0 1.42102,0.21205 1.86976,0.63583 0.44874,0.42356 0.6731,1.02212 0.6731,1.79496 v 9.61041 c 0,3.66462 1.53312,5.49691 4.59945,5.49691 1.99438,0 3.98885,-0.90985 5.98321,-2.72971 l -0.67311,-0.89748 c -0.87254,0.72298 -1.6454,1.08435 -2.31849,1.08435 -0.67311,0 -1.17173,-0.18665 -1.4958,-0.56078 -0.32411,-0.39871 -0.48602,-0.93504 -0.48602,-1.60815 v -9.61039 c 0,-1.69522 -0.4986,-3.02886 -1.49579,-4.00111 -0.97227,-0.9972 -2.25633,-1.49582 -3.85184,-1.49582 -1.57056,0 -2.85436,0.22421 -3.85155,0.67311 -0.97225,0.42356 -1.94455,1.17173 -2.91681,2.2437 -0.8476,-1.94449 -2.54263,-2.91681 -5.08545,-2.91681 z m 28.9736,0 c -2.09409,0 -4.10088,0.90984 -6.02046,2.7297 l 0.71037,0.89748 c 0.82268,-0.72297 1.658,-1.08435 2.50562,-1.08435 0.42376,0 0.74763,0.1248 0.97198,0.37386 0.24933,0.2242 0.53615,0.66052 0.86024,1.30867 l 3.62716,7.62862 c -0.5983,1.86972 -1.43335,3.32799 -2.50533,4.37507 -0.17449,-0.62324 -0.52356,-1.13417 -1.04704,-1.53309 -0.49862,-0.42356 -1.12188,-0.63584 -1.86977,-0.63584 -0.72295,0 -1.37116,0.28661 -1.94454,0.86021 -0.54847,0.54837 -0.82269,1.22164 -0.82269,2.01939 0,0.79774 0.28683,1.48317 0.86022,2.05654 0.57339,0.54836 1.28378,0.82271 2.13138,0.82271 1.32128,0 2.50535,-0.54836 3.55241,-1.64537 1.04703,-1.12185 1.90728,-2.58016 2.58037,-4.37512 l 1.60785,3.32805 c 0.84762,1.7949 2.31853,2.69244 4.41262,2.69244 2.09409,0 4.10088,-0.90986 6.02046,-2.72972 l -0.71037,-0.89748 c -0.82267,0.72299 -1.65798,1.08435 -2.5056,1.08435 -0.42382,0 -0.76024,-0.11205 -1.00953,-0.3363 -0.22437,-0.24906 -0.4986,-0.69807 -0.82269,-1.34628 l -3.62746,-7.55374 c 0.59832,-1.89468 1.44595,-3.37791 2.54286,-4.4499 0.14955,0.64815 0.4737,1.17173 0.97228,1.57059 0.5235,0.39872 1.1594,0.59834 1.90727,0.59834 0.7479,0 1.39611,-0.27446 1.94455,-0.82271 0.57339,-0.57337 0.85995,-1.25913 0.85995,-2.05687 0,-0.79775 -0.28654,-1.47059 -0.85995,-2.01906 -0.54847,-0.57338 -1.22158,-0.86019 -2.01933,-0.86019 -1.37113,0 -2.59275,0.57337 -3.66471,1.72018 -1.07199,1.12179 -1.94455,2.58011 -2.61764,4.37507 l -1.60785,-3.40283 c -0.84762,-1.79496 -2.31852,-2.69242 -4.41263,-2.69242 z m -156.692832,2.13136 c 1.445919,0 2.542871,0.71067 3.290762,2.13165 0.772819,1.3961 1.159383,3.27819 1.159383,5.64652 0,2.36834 -0.386564,4.26303 -1.159383,5.68401 -0.747891,1.3961 -1.844843,2.09417 -3.290762,2.09417 -1.42099,0 -2.480411,-0.69807 -3.178441,-2.09417 -0.69803,-1.39602 -1.047061,-3.29077 -1.047061,-5.68401 0,-2.39323 0.349031,-4.28798 1.047061,-5.68406 0.69803,-1.39604 1.757451,-2.09411 3.178441,-2.09411 z m 53.024233,0 c 1.445917,0 2.542871,0.71067 3.290763,2.13165 0.77282,1.3961 1.159107,3.27819 1.159107,5.64652 0,2.36834 -0.386283,4.26303 -1.159107,5.68401 -0.747892,1.3961 -1.844846,2.09417 -3.290763,2.09417 -1.42099,0 -2.480416,-0.69807 -3.178441,-2.09417 -0.698032,-1.39602 -1.047061,-3.29077 -1.047061,-5.68401 0,-2.39323 0.349008,-4.28798 1.047061,-5.68406 0.698025,-1.39604 1.757451,-2.09411 3.178441,-2.09411 z m 26.585259,0 c 1.44592,0 2.5426,0.71067 3.29049,2.13165 0.77282,1.3961 1.15938,3.27819 1.15938,5.64652 0,2.36834 -0.38656,4.26303 -1.15938,5.68401 -0.74789,1.3961 -1.84457,2.09417 -3.29049,2.09417 -1.42099,0 -2.48068,-0.69807 -3.17871,-2.09417 -0.69803,-1.39602 -1.04706,-3.29077 -1.04706,-5.68401 0,-2.39323 0.349,-4.28798 1.04706,-5.68406 0.69803,-1.39604 1.75772,-2.09411 3.17871,-2.09411 z"
           id="path6762" />
        <path
           style="fill:#ff6f05;fill-opacity:1;stroke:none;stroke-width:5.51272011;stroke-linejoin:miter;stroke-miterlimit:4;stroke-dasharray:none;stroke-opacity:1;paint-order:stroke markers fill"
           d="M 42.374774,258.51498 H 196.66694 v 7.01329 H 42.374774 Z"
           id="rect6727" />
      </g>
    </g>
  </g>
</svg>
